<mxfile host="65bd71144e" pages="1">
    <diagram id="2ya5GuV1ifHx47wBAU_z" name="Page-1">
        <mxGraphModel dx="5020" dy="1167" grid="1" gridSize="10" guides="1" tooltips="1" connect="1" arrows="1" fold="1" page="1" pageScale="1" pageWidth="3300" pageHeight="4681" background="#ffffff" math="0" shadow="0">
            <root>
                <mxCell id="0"/>
                <mxCell id="1" parent="0"/>
                <mxCell id="55" value="configuration" style="rounded=1;whiteSpace=wrap;html=1;fillColor=#f5f5f5;strokeColor=#666666;fontColor=#333333;" parent="1" vertex="1">
                    <mxGeometry x="130" y="1020" width="280" height="60" as="geometry"/>
                </mxCell>
                <mxCell id="56" value="dependencies" style="rounded=1;whiteSpace=wrap;html=1;fillColor=#f5f5f5;strokeColor=#666666;fontColor=#333333;" parent="1" vertex="1">
                    <mxGeometry x="130" y="1100" width="280" height="60" as="geometry"/>
                </mxCell>
                <mxCell id="57" value="scripts" style="rounded=1;whiteSpace=wrap;html=1;fillColor=#f5f5f5;strokeColor=#666666;fontColor=#333333;" parent="1" vertex="1">
                    <mxGeometry x="130" y="1180" width="80" height="60" as="geometry"/>
                </mxCell>
                <mxCell id="58" value="Webpack&lt;br&gt;(Babel, Tailwind, PostCSS, etc)" style="rounded=1;whiteSpace=wrap;html=1;fillColor=#f5f5f5;strokeColor=#666666;fontColor=#333333;" parent="1" vertex="1">
                    <mxGeometry x="130" y="1260" width="280" height="60" as="geometry"/>
                </mxCell>
                <mxCell id="59" value="asset chunks" style="rounded=1;whiteSpace=wrap;html=1;fillColor=#f5f5f5;strokeColor=#666666;fontColor=#333333;" parent="1" vertex="1">
                    <mxGeometry x="130" y="1340" width="130" height="60" as="geometry"/>
                </mxCell>
                <mxCell id="60" value="HTTP server" style="rounded=1;whiteSpace=wrap;html=1;fillColor=#f5f5f5;strokeColor=#666666;fontColor=#333333;" parent="1" vertex="1">
                    <mxGeometry x="130" y="1420" width="280" height="60" as="geometry"/>
                </mxCell>
                <mxCell id="61" value="edge servers" style="rounded=1;whiteSpace=wrap;html=1;fillColor=#f5f5f5;strokeColor=#666666;fontColor=#333333;" parent="1" vertex="1">
                    <mxGeometry x="430" y="1400" width="140" height="60" as="geometry"/>
                </mxCell>
                <mxCell id="62" value="service worker" style="rounded=1;whiteSpace=wrap;html=1;fillColor=#f5f5f5;strokeColor=#666666;fontColor=#333333;" parent="1" vertex="1">
                    <mxGeometry x="590" y="1400" width="140" height="60" as="geometry"/>
                </mxCell>
                <mxCell id="63" value="local styles" style="rounded=1;whiteSpace=wrap;html=1;fillColor=#f5f5f5;strokeColor=#666666;fontColor=#333333;" parent="1" vertex="1">
                    <mxGeometry x="330" y="1180" width="80" height="60" as="geometry"/>
                </mxCell>
                <mxCell id="64" value="static files" style="rounded=1;whiteSpace=wrap;html=1;fillColor=#f5f5f5;strokeColor=#666666;fontColor=#333333;" parent="1" vertex="1">
                    <mxGeometry x="230" y="1180" width="80" height="60" as="geometry"/>
                </mxCell>
                <mxCell id="65" value="lazy assets" style="rounded=1;whiteSpace=wrap;html=1;fillColor=#f5f5f5;strokeColor=#666666;fontColor=#333333;" parent="1" vertex="1">
                    <mxGeometry x="280" y="1340" width="132" height="60" as="geometry"/>
                </mxCell>
                <mxCell id="66" value="Server" style="text;strokeColor=#666666;fillColor=#f5f5f5;html=1;fontSize=24;fontStyle=1;verticalAlign=middle;align=center;fontColor=#333333;" parent="1" vertex="1">
                    <mxGeometry x="362" y="936" width="100" height="40" as="geometry"/>
                </mxCell>
                <mxCell id="67" value="Client" style="text;strokeColor=#666666;fillColor=#f5f5f5;html=1;fontSize=24;fontStyle=1;verticalAlign=middle;align=center;fontColor=#333333;" parent="1" vertex="1">
                    <mxGeometry x="870" y="1330" width="100" height="40" as="geometry"/>
                </mxCell>
                <mxCell id="68" value="Caching" style="text;strokeColor=#666666;fillColor=#f5f5f5;html=1;fontSize=24;fontStyle=1;verticalAlign=middle;align=center;fontColor=#333333;" parent="1" vertex="1">
                    <mxGeometry x="530" y="1300" width="100" height="40" as="geometry"/>
                </mxCell>
                <mxCell id="69" value="Browser" style="rounded=1;whiteSpace=wrap;html=1;fillColor=#f5f5f5;strokeColor=#666666;fontColor=#333333;" parent="1" vertex="1">
                    <mxGeometry x="860" y="1400" width="280" height="60" as="geometry"/>
                </mxCell>
                <mxCell id="70" value="application" style="rounded=1;whiteSpace=wrap;html=1;fillColor=#f5f5f5;strokeColor=#666666;fontColor=#333333;" parent="1" vertex="1">
                    <mxGeometry x="720" y="1480" width="280" height="60" as="geometry"/>
                </mxCell>
                <mxCell id="94" style="edgeStyle=none;html=1;entryX=0;entryY=0.5;entryDx=0;entryDy=0;fillColor=#f5f5f5;strokeColor=#666666;fontColor=#1A1A1A;" parent="1" source="71" target="91" edge="1">
                    <mxGeometry relative="1" as="geometry"/>
                </mxCell>
                <mxCell id="71" value="components" style="rounded=1;whiteSpace=wrap;html=1;fillColor=#f5f5f5;strokeColor=#666666;fontColor=#333333;" parent="1" vertex="1">
                    <mxGeometry x="690" y="1550" width="280" height="60" as="geometry"/>
                </mxCell>
                <mxCell id="74" value="talons" style="rounded=1;whiteSpace=wrap;html=1;fillColor=#f5f5f5;strokeColor=#666666;fontColor=#333333;" parent="1" vertex="1">
                    <mxGeometry x="630" y="1620" width="280" height="60" as="geometry"/>
                </mxCell>
                <mxCell id="75" value="Apollo Client" style="rounded=1;whiteSpace=wrap;html=1;fillColor=#f5f5f5;strokeColor=#666666;fontColor=#333333;" parent="1" vertex="1">
                    <mxGeometry x="610" y="1690" width="280" height="60" as="geometry"/>
                </mxCell>
                <mxCell id="77" value="Magento GQL API" style="rounded=1;whiteSpace=wrap;html=1;fillColor=#f5f5f5;strokeColor=#666666;fontColor=#333333;" parent="1" vertex="1">
                    <mxGeometry x="-40" y="1530" width="280" height="60" as="geometry"/>
                </mxCell>
                <mxCell id="79" style="edgeStyle=none;html=1;entryX=0;entryY=0.5;entryDx=0;entryDy=0;fillColor=#f5f5f5;strokeColor=#666666;fontColor=#1A1A1A;" parent="1" source="78" target="55" edge="1">
                    <mxGeometry relative="1" as="geometry"/>
                </mxCell>
                <mxCell id="80" style="edgeStyle=none;html=1;exitX=1;exitY=0.5;exitDx=0;exitDy=0;entryX=-0.004;entryY=0.383;entryDx=0;entryDy=0;entryPerimeter=0;fillColor=#f5f5f5;strokeColor=#666666;fontColor=#1A1A1A;" parent="1" source="78" target="56" edge="1">
                    <mxGeometry relative="1" as="geometry"/>
                </mxCell>
                <mxCell id="81" style="edgeStyle=none;html=1;entryX=0;entryY=0.5;entryDx=0;entryDy=0;fillColor=#f5f5f5;strokeColor=#666666;fontColor=#1A1A1A;" parent="1" source="78" target="57" edge="1">
                    <mxGeometry relative="1" as="geometry"/>
                </mxCell>
                <mxCell id="78" value="user code" style="rounded=1;whiteSpace=wrap;html=1;fillColor=#f5f5f5;strokeColor=#666666;fontColor=#333333;" parent="1" vertex="1">
                    <mxGeometry x="-190" y="1090" width="200" height="70" as="geometry"/>
                </mxCell>
                <mxCell id="84" style="edgeStyle=none;html=1;entryX=-0.018;entryY=0.4;entryDx=0;entryDy=0;entryPerimeter=0;fillColor=#f5f5f5;strokeColor=#666666;fontColor=#1A1A1A;" parent="1" source="82" target="58" edge="1">
                    <mxGeometry relative="1" as="geometry"/>
                </mxCell>
                <mxCell id="82" value="extensions" style="rounded=1;whiteSpace=wrap;html=1;fillColor=#f5f5f5;strokeColor=#666666;fontColor=#333333;" parent="1" vertex="1">
                    <mxGeometry x="-190" y="1250" width="200" height="70" as="geometry"/>
                </mxCell>
                <mxCell id="87" style="edgeStyle=none;html=1;exitX=0;exitY=0.5;exitDx=0;exitDy=0;entryX=1;entryY=0.5;entryDx=0;entryDy=0;fillColor=#f5f5f5;strokeColor=#666666;fontColor=#1A1A1A;" parent="1" source="85" target="56" edge="1">
                    <mxGeometry relative="1" as="geometry"/>
                </mxCell>
                <mxCell id="85" value="venia-ui&lt;br&gt;peregrine" style="rounded=1;whiteSpace=wrap;html=1;fillColor=#f5f5f5;strokeColor=#666666;fontColor=#333333;" parent="1" vertex="1">
                    <mxGeometry x="-170" y="990" width="200" height="70" as="geometry"/>
                </mxCell>
                <mxCell id="88" value="Authoring" style="text;strokeColor=none;fillColor=none;html=1;fontSize=24;fontStyle=1;verticalAlign=middle;align=center;" parent="1" vertex="1">
                    <mxGeometry x="-170" y="656" width="100" height="40" as="geometry"/>
                </mxCell>
                <mxCell id="90" style="edgeStyle=none;html=1;entryX=0.114;entryY=1.067;entryDx=0;entryDy=0;entryPerimeter=0;fillColor=#f5f5f5;strokeColor=#666666;fontColor=#1A1A1A;" parent="1" source="89" target="77" edge="1">
                    <mxGeometry relative="1" as="geometry"/>
                </mxCell>
                <mxCell id="89" value="CMS content" style="rounded=1;whiteSpace=wrap;html=1;fillColor=#f5f5f5;strokeColor=#666666;fontColor=#333333;" parent="1" vertex="1">
                    <mxGeometry x="-230" y="1640" width="200" height="70" as="geometry"/>
                </mxCell>
                <mxCell id="91" value="context providers" style="rounded=1;whiteSpace=wrap;html=1;fillColor=#f5f5f5;strokeColor=#666666;fontColor=#333333;" parent="1" vertex="1">
                    <mxGeometry x="1070" y="1570" width="150" height="60" as="geometry"/>
                </mxCell>
                <mxCell id="92" value="application state" style="rounded=1;whiteSpace=wrap;html=1;fillColor=#f5f5f5;strokeColor=#666666;fontColor=#333333;" parent="1" vertex="1">
                    <mxGeometry x="1100" y="1640" width="150" height="60" as="geometry"/>
                </mxCell>
                <mxCell id="93" value="structure &amp;amp; content" style="rounded=1;whiteSpace=wrap;html=1;fillColor=#f5f5f5;strokeColor=#666666;fontColor=#333333;" parent="1" vertex="1">
                    <mxGeometry x="1130" y="1720" width="150" height="60" as="geometry"/>
                </mxCell>
                <mxCell id="95" value="theme" style="rounded=1;whiteSpace=wrap;html=1;fillColor=#f5f5f5;strokeColor=#666666;fontColor=#333333;" parent="1" vertex="1">
                    <mxGeometry x="120" y="1010" width="100" height="60" as="geometry"/>
                </mxCell>
                <mxCell id="96" value="Magento Backend" style="html=1;overflow=block;blockSpacing=1;whiteSpace=wrap;fontSize=16.7;fontColor=#333333;fontStyle=1;align=left;spacing=3.8;verticalAlign=top;strokeColor=#5e5e5e;strokeOpacity=100;absoluteArcSize=1;arcSize=9;strokeWidth=2.3;container=1;collapsible=0;fillColor=#FFFFFF;" vertex="1" parent="1">
                    <mxGeometry x="695" y="786" width="330" height="420" as="geometry"/>
                </mxCell>
                <UserObject label="PWA Studio" lucidchartObjectId="smCJzhlw7XsL" id="97">
                    <mxCell style="html=1;overflow=block;blockSpacing=1;whiteSpace=wrap;fontSize=16.7;fontColor=#834187;fontStyle=1;align=left;spacing=3.8;verticalAlign=top;strokeColor=#834187;strokeOpacity=100;absoluteArcSize=1;arcSize=9;strokeWidth=2.3;fillColor=#FFFFFF;" vertex="1" parent="1">
                        <mxGeometry x="80" y="141" width="330" height="555" as="geometry"/>
                    </mxCell>
                </UserObject>
                <mxCell id="98" value="Buildpack" style="html=1;overflow=block;blockSpacing=1;whiteSpace=wrap;fontSize=13;fontColor=#c92d39;fontStyle=1;align=left;spacing=9;verticalAlign=top;strokeColor=#c92d39;strokeOpacity=100;absoluteArcSize=1;arcSize=9;strokeWidth=2.3;container=1;collapsible=0;fillColor=#FFFFFF;" vertex="1" parent="1">
                    <mxGeometry x="107" y="279" width="270" height="390" as="geometry"/>
                </mxCell>
                <mxCell id="99" value="Venia" style="html=1;overflow=block;blockSpacing=1;whiteSpace=wrap;fontSize=16.7;fontColor=#0c7cba;fontStyle=1;align=left;spacing=3.8;verticalAlign=top;strokeColor=#0c7cba;strokeOpacity=100;absoluteArcSize=1;arcSize=9;strokeWidth=2.3;container=1;collapsible=0;fillColor=#FFFFFF;" vertex="1" parent="1">
                    <mxGeometry x="695" y="140" width="330" height="525" as="geometry"/>
                </mxCell>
                <UserObject label="Project Scaffolding Tool" lucidchartObjectId="VpCJU0ryBftV" id="100">
                    <mxCell style="html=1;overflow=block;blockSpacing=1;whiteSpace=wrap;shape=process;fontSize=16.7;fontColor=#333333;spacing=3.8;strokeColor=#5e5e5e;strokeOpacity=100;absoluteArcSize=1;arcSize=9;strokeWidth=2.3;fillColor=#FFFFFF;" vertex="1" parent="1">
                        <mxGeometry x="110" y="186" width="270" height="75" as="geometry"/>
                    </mxCell>
                </UserObject>
                <UserObject label="" lucidchartObjectId="kqCJN82U5BEQ" id="101">
                    <mxCell style="html=1;jettySize=18;whiteSpace=wrap;fontSize=13;strokeColor=#5E5E5E;strokeWidth=1.5;arcSize=12;edgeStyle=orthogonalEdgeStyle;startArrow=none;endArrow=block;endFill=1;exitX=1.004;exitY=0.5;exitPerimeter=0;entryX=-0.003;entryY=0.158;entryPerimeter=0;" edge="1" parent="1" source="100" target="99">
                        <mxGeometry width="100" height="100" relative="1" as="geometry">
                            <Array as="points"/>
                        </mxGeometry>
                    </mxCell>
                </UserObject>
                <mxCell id="102" value="&#10;Creates a storefront project.&#10;&#10;Team maintains a demo&#10;store named Venia " style="text;html=1;resizable=0;labelBackgroundColor=none;align=center;verticalAlign=middle;fontStyle=0;fontColor=#333333;fontSize=13.3;" vertex="1" parent="101">
                    <mxGeometry x="0.08316566063044917" relative="1" as="geometry"/>
                </mxCell>
                <UserObject label="" lucidchartObjectId="SsCJFrIRFOSo" id="103">
                    <mxCell style="html=1;jettySize=18;whiteSpace=wrap;fontSize=13;strokeColor=#5E5E5E;strokeWidth=1.5;arcSize=12;edgeStyle=orthogonalEdgeStyle;startArrow=block;startFill=1;endArrow=block;endFill=1;exitX=0.5;exitY=1.002;exitPerimeter=0;entryX=0.5;entryY=-0.003;entryPerimeter=0;" edge="1" parent="1" source="99" target="96">
                        <mxGeometry width="100" height="100" relative="1" as="geometry">
                            <Array as="points"/>
                        </mxGeometry>
                    </mxCell>
                </UserObject>
                <mxCell id="104" value="Communicate via GraphQL" style="text;html=1;resizable=0;labelBackgroundColor=#FFFFFF;align=center;verticalAlign=middle;fontStyle=1;fontColor=#333333;fontSize=13.3;" vertex="1" parent="103">
                    <mxGeometry relative="1" as="geometry"/>
                </mxCell>
                <UserObject label="" lucidchartObjectId="IvCJG7UbG~~K" id="105">
                    <mxCell style="html=1;jettySize=18;whiteSpace=wrap;fontSize=13;strokeColor=#5E5E5E;strokeWidth=1.5;arcSize=12;edgeStyle=orthogonalEdgeStyle;startArrow=none;endArrow=block;endFill=1;exitX=1.005;exitY=0.5;exitPerimeter=0;entryX=-0.003;entryY=0.654;entryPerimeter=0;" edge="1" parent="1" source="121" target="99">
                        <mxGeometry width="100" height="100" relative="1" as="geometry">
                            <Array as="points"/>
                        </mxGeometry>
                    </mxCell>
                </UserObject>
                <mxCell id="106" value="Rebuilds" style="text;html=1;resizable=0;labelBackgroundColor=none;align=center;verticalAlign=middle;fontStyle=0;fontColor=#333333;fontSize=13.3;" vertex="1" parent="105">
                    <mxGeometry x="0.08944869161081748" relative="1" as="geometry">
                        <mxPoint x="-13" y="-15" as="offset"/>
                    </mxGeometry>
                </mxCell>
                <mxCell id="107" value="Peregrine" style="html=1;overflow=block;blockSpacing=1;whiteSpace=wrap;fontSize=15;fontColor=#19967d;fontStyle=1;align=left;spacing=9;verticalAlign=top;strokeColor=#19967d;strokeOpacity=100;absoluteArcSize=1;arcSize=9;strokeWidth=2.3;container=1;collapsible=0;fillColor=#FFFFFF;" vertex="1" parent="1">
                    <mxGeometry x="725" y="174" width="270" height="202" as="geometry"/>
                </mxCell>
                <UserObject label="UI Components" lucidchartObjectId="DyCJLm_Sw34x" id="108">
                    <mxCell style="html=1;overflow=block;blockSpacing=1;whiteSpace=wrap;fontSize=15;fontColor=#333333;spacing=3.8;strokeOpacity=0;fillOpacity=0;absoluteArcSize=1;arcSize=9;fillColor=#ffffff;strokeWidth=2.3;" vertex="1" parent="107">
                        <mxGeometry y="36" width="270" height="27" as="geometry"/>
                    </mxCell>
                </UserObject>
                <UserObject label="Talons" lucidchartObjectId="IDDJ9zgb2tDh" id="109">
                    <mxCell style="html=1;overflow=block;blockSpacing=1;whiteSpace=wrap;fontSize=15;fontColor=#333333;spacing=3.8;strokeOpacity=0;fillOpacity=0;absoluteArcSize=1;arcSize=9;fillColor=#ffffff;strokeWidth=2.3;" vertex="1" parent="107">
                        <mxGeometry y="65" width="270" height="27" as="geometry"/>
                    </mxCell>
                </UserObject>
                <UserObject label="Context Providers" lucidchartObjectId="LDDJ5MCi5vOJ" id="110">
                    <mxCell style="html=1;overflow=block;blockSpacing=1;whiteSpace=wrap;fontSize=15;fontColor=#333333;spacing=3.8;strokeOpacity=0;fillOpacity=0;absoluteArcSize=1;arcSize=9;fillColor=#ffffff;strokeWidth=2.3;" vertex="1" parent="107">
                        <mxGeometry y="97" width="270" height="27" as="geometry"/>
                    </mxCell>
                </UserObject>
                <UserObject label="Apollo GraphQL Utilities" lucidchartObjectId="VDDJaJASkvhJ" id="111">
                    <mxCell style="html=1;overflow=block;blockSpacing=1;whiteSpace=wrap;fontSize=15;fontColor=#333333;spacing=3.8;strokeOpacity=0;fillOpacity=0;absoluteArcSize=1;arcSize=9;fillColor=#ffffff;strokeWidth=2.3;" vertex="1" parent="107">
                        <mxGeometry y="129" width="270" height="27" as="geometry"/>
                    </mxCell>
                </UserObject>
                <UserObject label="Reusable React Hooks" lucidchartObjectId="ZDDJxFrXplmU" id="112">
                    <mxCell style="html=1;overflow=block;blockSpacing=1;whiteSpace=wrap;fontSize=15;fontColor=#333333;spacing=3.8;strokeOpacity=0;fillOpacity=0;absoluteArcSize=1;arcSize=9;fillColor=#ffffff;strokeWidth=2.3;" vertex="1" parent="107">
                        <mxGeometry y="161" width="270" height="27" as="geometry"/>
                    </mxCell>
                </UserObject>
                <mxCell id="113" value="Page Builder" style="html=1;overflow=block;blockSpacing=1;whiteSpace=wrap;fontSize=15;fontColor=#ef8d22;fontStyle=1;align=left;spacing=9;verticalAlign=top;strokeColor=#ef8d22;strokeOpacity=100;absoluteArcSize=1;arcSize=9;strokeWidth=2.3;container=1;collapsible=0;fillColor=#FFFFFF;" vertex="1" parent="1">
                    <mxGeometry x="725" y="399" width="270" height="105" as="geometry"/>
                </mxCell>
                <UserObject label="Parser" lucidchartObjectId="hICJ_p2f_VWX" id="114">
                    <mxCell style="html=1;overflow=block;blockSpacing=1;whiteSpace=wrap;fontSize=15;fontColor=#333333;spacing=3.8;strokeOpacity=0;fillOpacity=0;absoluteArcSize=1;arcSize=9;fillColor=#ffffff;strokeWidth=2.3;" vertex="1" parent="113">
                        <mxGeometry y="30" width="270" height="39" as="geometry"/>
                    </mxCell>
                </UserObject>
                <UserObject label="UI Components" lucidchartObjectId="tICJResJxHMC" id="115">
                    <mxCell style="html=1;overflow=block;blockSpacing=1;whiteSpace=wrap;fontSize=15;fontColor=#333333;spacing=3.8;strokeOpacity=0;fillOpacity=0;absoluteArcSize=1;arcSize=9;fillColor=#ffffff;strokeWidth=2.3;" vertex="1" parent="113">
                        <mxGeometry y="52" width="270" height="47" as="geometry"/>
                    </mxCell>
                </UserObject>
                <mxCell id="116" value="Page Builder" style="html=1;overflow=block;blockSpacing=1;whiteSpace=wrap;fontSize=15;fontColor=#ef8d22;fontStyle=1;align=left;spacing=9;verticalAlign=top;strokeColor=#ef8d22;strokeOpacity=100;absoluteArcSize=1;arcSize=9;strokeWidth=2.3;container=1;collapsible=0;fillColor=#FFFFFF;" vertex="1" parent="1">
                    <mxGeometry x="718" y="951" width="278" height="105" as="geometry"/>
                </mxCell>
                <UserObject label="&lt;div style=&quot;display: flex; justify-content: center; text-align: center; align-items: baseline; font-size: 0; line-height: 1.25;margin-top: -2px;&quot;&gt;&lt;span&gt;&lt;span style=&quot;font-size:15px;color:#333333;font-style: italic;&quot;&gt;magento2-page-builder&lt;/span&gt;&lt;span style=&quot;font-size:15px;color:#333333;&quot;&gt;&#10;metapackage&lt;/span&gt;&lt;/span&gt;&lt;/div&gt;" lucidchartObjectId="KLCJYOjXM2JK" id="117">
                    <mxCell style="html=1;overflow=block;blockSpacing=1;whiteSpace=wrap;fontSize=13;spacing=3.8;strokeOpacity=0;fillOpacity=0;absoluteArcSize=1;arcSize=9;fillColor=#ffffff;strokeWidth=2.3;" vertex="1" parent="116">
                        <mxGeometry y="30" width="277" height="47" as="geometry"/>
                    </mxCell>
                </UserObject>
                <mxCell id="118" value="Environment Setup" style="html=1;overflow=block;blockSpacing=1;whiteSpace=wrap;fontSize=13;fontColor=#333333;fontStyle=1;align=left;spacing=9;verticalAlign=top;strokeColor=#333333;strokeOpacity=100;absoluteArcSize=1;arcSize=9;strokeWidth=2.3;container=1;collapsible=0;fillColor=#FFFFFF;" vertex="1" parent="1">
                    <mxGeometry x="122" y="323" width="240" height="90" as="geometry"/>
                </mxCell>
                <UserObject label="CLI tool" lucidchartObjectId="H5CJbPk5gqP5" id="119">
                    <mxCell style="html=1;overflow=block;blockSpacing=1;whiteSpace=wrap;fontSize=13;fontColor=#333333;spacing=3.8;strokeOpacity=0;fillOpacity=0;absoluteArcSize=1;arcSize=9;fillColor=#ffffff;strokeWidth=2.3;" vertex="1" parent="118">
                        <mxGeometry y="32" width="227" height="27" as="geometry"/>
                    </mxCell>
                </UserObject>
                <UserObject label="Configuration Management" lucidchartObjectId="25CJZQFU0cTm" id="120">
                    <mxCell style="html=1;overflow=block;blockSpacing=1;whiteSpace=wrap;fontSize=13;fontColor=#333333;spacing=3.8;strokeOpacity=0;fillOpacity=0;absoluteArcSize=1;arcSize=9;fillColor=#ffffff;strokeWidth=2.3;" vertex="1" parent="118">
                        <mxGeometry y="53" width="227" height="27" as="geometry"/>
                    </mxCell>
                </UserObject>
                <mxCell id="121" value="Build Process API" style="html=1;overflow=block;blockSpacing=1;whiteSpace=wrap;fontSize=13;fontColor=#333333;fontStyle=1;align=left;spacing=9;verticalAlign=top;strokeColor=#333333;strokeOpacity=100;absoluteArcSize=1;arcSize=9;strokeWidth=2.3;container=1;collapsible=0;fillColor=#FFFFFF;" vertex="1" parent="1">
                    <mxGeometry x="122" y="429" width="240" height="109" as="geometry"/>
                </mxCell>
                <UserObject label="Webpack Tools" lucidchartObjectId="o6CJUaPQaONZ" id="122">
                    <mxCell style="html=1;overflow=block;blockSpacing=1;whiteSpace=wrap;fontSize=13;fontColor=#333333;spacing=3.8;strokeOpacity=0;fillOpacity=0;absoluteArcSize=1;arcSize=9;fillColor=#ffffff;strokeWidth=2.3;" vertex="1" parent="121">
                        <mxGeometry y="32" width="227" height="27" as="geometry"/>
                    </mxCell>
                </UserObject>
                <UserObject label="BuildBus" lucidchartObjectId="o6CJCz6riIAx" id="123">
                    <mxCell style="html=1;overflow=block;blockSpacing=1;whiteSpace=wrap;fontSize=13;fontColor=#333333;spacing=3.8;strokeOpacity=0;fillOpacity=0;absoluteArcSize=1;arcSize=9;fillColor=#ffffff;strokeWidth=2.3;" vertex="1" parent="121">
                        <mxGeometry x="3" y="54" width="227" height="27" as="geometry"/>
                    </mxCell>
                </UserObject>
                <UserObject label="Transform Requests" lucidchartObjectId="v9CJ3aVz_XrK" id="124">
                    <mxCell style="html=1;overflow=block;blockSpacing=1;whiteSpace=wrap;fontSize=13;fontColor=#333333;spacing=3.8;strokeOpacity=0;fillOpacity=0;absoluteArcSize=1;arcSize=9;fillColor=#ffffff;strokeWidth=2.3;" vertex="1" parent="121">
                        <mxGeometry y="79" width="227" height="27" as="geometry"/>
                    </mxCell>
                </UserObject>
                <mxCell id="125" value="Extensibility API" style="html=1;overflow=block;blockSpacing=1;whiteSpace=wrap;fontSize=13;fontColor=#333333;fontStyle=1;align=left;spacing=9;verticalAlign=top;strokeColor=#333333;strokeOpacity=100;absoluteArcSize=1;arcSize=9;strokeWidth=2.3;container=1;collapsible=0;fillColor=#FFFFFF;" vertex="1" parent="1">
                    <mxGeometry x="124" y="554" width="238" height="90" as="geometry"/>
                </mxCell>
                <UserObject label="Targets" lucidchartObjectId="A6CJv3l4E_Oy" id="126">
                    <mxCell style="html=1;overflow=block;blockSpacing=1;whiteSpace=wrap;fontSize=13;fontColor=#333333;spacing=3.8;strokeOpacity=0;fillOpacity=0;absoluteArcSize=1;arcSize=9;fillColor=#ffffff;strokeWidth=2.3;" vertex="1" parent="125">
                        <mxGeometry y="32" width="225" height="27" as="geometry"/>
                    </mxCell>
                </UserObject>
                <UserObject label="Targetables" lucidchartObjectId="A6CJN-q2nFyJ" id="127">
                    <mxCell style="html=1;overflow=block;blockSpacing=1;whiteSpace=wrap;fontSize=13;fontColor=#333333;spacing=3.8;strokeOpacity=0;fillOpacity=0;absoluteArcSize=1;arcSize=9;fillColor=#ffffff;strokeWidth=2.3;" vertex="1" parent="125">
                        <mxGeometry y="52" width="225" height="27" as="geometry"/>
                    </mxCell>
                </UserObject>
                <mxCell id="128" value="PWA Studio" style="html=1;overflow=block;blockSpacing=1;whiteSpace=wrap;fontSize=15;fontColor=#834187;fontStyle=1;align=left;spacing=9;verticalAlign=top;strokeColor=#834187;strokeOpacity=100;absoluteArcSize=1;arcSize=9;strokeWidth=2.3;container=1;collapsible=0;fillColor=#FFFFFF;" vertex="1" parent="1">
                    <mxGeometry x="718" y="831" width="278" height="105" as="geometry"/>
                </mxCell>
                <UserObject label="&lt;div style=&quot;display: flex; justify-content: center; text-align: center; align-items: baseline; font-size: 0; line-height: 1.25;margin-top: -2px;&quot;&gt;&lt;span&gt;&lt;span style=&quot;font-size:15px;color:#333333;font-style: italic;&quot;&gt;magento2-pwa&lt;/span&gt;&lt;span style=&quot;font-size:15px;color:#333333;&quot;&gt;&#10;metapackage&lt;/span&gt;&lt;/span&gt;&lt;/div&gt;" lucidchartObjectId="PeDJqutuuNdI" id="129">
                    <mxCell style="html=1;overflow=block;blockSpacing=1;whiteSpace=wrap;fontSize=13;spacing=3.8;strokeOpacity=0;fillOpacity=0;absoluteArcSize=1;arcSize=9;fillColor=#ffffff;strokeWidth=2.3;" vertex="1" parent="128">
                        <mxGeometry y="28" width="277" height="52" as="geometry"/>
                    </mxCell>
                </UserObject>
                <mxCell id="130" value="Theming" style="html=1;overflow=block;blockSpacing=1;whiteSpace=wrap;fontSize=15;fontColor=#333333;spacing=9;verticalAlign=middle;strokeColor=#834187;strokeOpacity=100;absoluteArcSize=1;arcSize=9;strokeWidth=2.3;container=1;collapsible=0;fillColor=#FFFFFF;" vertex="1" parent="1">
                    <mxGeometry x="725" y="527" width="270" height="40" as="geometry"/>
                </mxCell>
                <mxCell id="131" value="Service Worker" style="html=1;overflow=block;blockSpacing=1;whiteSpace=wrap;fontSize=15;fontColor=#333333;spacing=9;verticalAlign=middle;strokeColor=#834187;strokeOpacity=100;absoluteArcSize=1;arcSize=9;strokeWidth=2.3;container=1;collapsible=0;fillColor=#FFFFFF;" vertex="1" parent="1">
                    <mxGeometry x="725" y="591" width="270" height="40" as="geometry"/>
                </mxCell>
                <mxCell id="132" value="Venia" style="html=1;overflow=block;blockSpacing=1;whiteSpace=wrap;fontSize=15;fontColor=#0c7cba;fontStyle=1;align=left;spacing=9;verticalAlign=top;strokeColor=#0c7cba;strokeOpacity=100;absoluteArcSize=1;arcSize=9;strokeWidth=2.3;container=1;collapsible=0;fillColor=#FFFFFF;" vertex="1" parent="1">
                    <mxGeometry x="718" y="1071" width="278" height="105" as="geometry"/>
                </mxCell>
                <UserObject label="Sample Data packages" lucidchartObjectId="JKDJd2W5WInH" id="133">
                    <mxCell style="html=1;overflow=block;blockSpacing=1;whiteSpace=wrap;fontSize=15;fontColor=#333333;spacing=3.8;strokeOpacity=0;fillOpacity=0;absoluteArcSize=1;arcSize=9;fillColor=#ffffff;strokeWidth=2.3;" vertex="1" parent="132">
                        <mxGeometry y="30" width="277" height="47" as="geometry"/>
                    </mxCell>
                </UserObject>
                <mxCell id="134" value="Text" style="text;html=1;resizable=0;autosize=1;align=center;verticalAlign=middle;points=[];fillColor=none;strokeColor=none;labelBackgroundColor=#FFFFFF;" vertex="1" parent="1">
                    <mxGeometry x="830" y="320" width="40" height="20" as="geometry"/>
                </mxCell>
                <mxCell id="135" value="&lt;h2&gt;&lt;font color=&quot;#333333&quot;&gt;PWA Studio Frontend Architecture&lt;/font&gt;&lt;/h2&gt;" style="text;html=1;align=center;verticalAlign=middle;whiteSpace=wrap;labelBackgroundColor=none;" vertex="1" parent="1">
                    <mxGeometry x="70" y="60" width="310" height="30" as="geometry"/>
                </mxCell>
                <mxCell id="136" value="Text" style="text;html=1;align=center;verticalAlign=middle;resizable=0;points=[];autosize=1;strokeColor=none;fillColor=none;" vertex="1" parent="1">
                    <mxGeometry x="180" y="20" width="40" height="20" as="geometry"/>
                </mxCell>
                <mxCell id="137" value="Double-click the canvas to add new text block" style="text;html=1;align=center;verticalAlign=middle;resizable=0;points=[];autosize=1;strokeColor=none;fillColor=none;fontColor=none;" vertex="1" parent="1">
                    <mxGeometry x="490" y="60" width="260" height="20" as="geometry"/>
                </mxCell>
                <mxCell id="140" style="edgeStyle=none;html=1;exitX=0;exitY=0.5;exitDx=0;exitDy=0;" edge="1" parent="1" source="139">
                    <mxGeometry relative="1" as="geometry">
                        <mxPoint x="-10" y="940" as="targetPoint"/>
                    </mxGeometry>
                </mxCell>
                <mxCell id="139" value="Authoring" style="text;strokeColor=#666666;fillColor=#f5f5f5;html=1;fontSize=24;fontStyle=1;verticalAlign=middle;align=center;fontColor=#333333;" vertex="1" parent="1">
                    <mxGeometry x="20" y="920" width="100" height="40" as="geometry"/>
                </mxCell>
            </root>
        </mxGraphModel>
    </diagram>
</mxfile>